<?xml version="1.0" encoding="UTF-8"?>
<svg width="122px" height="48px" viewBox="0 0 122 48" version="1.1" xmlns="http://www.w3.org/2000/svg" xmlns:xlink="http://www.w3.org/1999/xlink">
    <title>KYC Camera Retry</title>
    <g id="KYC-Camera-Retry" stroke="none" stroke-width="1" fill="none" fill-rule="evenodd">
        <g id="Group" transform="translate(1.000000, 1.000000)">
            <polyline id="Path" stroke="#A0A0A0" stroke-width="2" stroke-linecap="round" stroke-linejoin="round" points="21 17 23 17 39 17"></polyline>
            <path d="M26,17 L26,15 C26,14.4696 26.2107,13.9609 26.5858,13.5858 C26.9609,13.2107 27.4696,13 28,13 L32,13 C32.5304,13 33.0391,13.2107 33.4142,13.5858 C33.7893,13.9609 34,14.4696 34,15 L34,17 M37,17 L37,31 C37,31.5304 36.7893,32.0391 36.4142,32.4142 C36.0391,32.7893 35.5304,33 35,33 L25,33 C24.4696,33 23.9609,32.7893 23.5858,32.4142 C23.2107,32.0391 23,31.5304 23,31 L23,17 L37,17 Z" id="Shape" stroke="#A0A0A0" stroke-width="2" stroke-linecap="round" stroke-linejoin="round"></path>
            <line x1="28" y1="22" x2="28" y2="28" id="Path" stroke="#A0A0A0" stroke-width="2" stroke-linecap="round" stroke-linejoin="round"></line>
            <line x1="32" y1="22" x2="32" y2="28" id="Path" stroke="#A0A0A0" stroke-width="2" stroke-linecap="round" stroke-linejoin="round"></line>
            <path d="M50.4467,28.734 C50.4467,28.874 50.5587,29 50.7127,29 L52.0007,29 C52.1407,29 52.2667,28.874 52.2667,28.734 L52.2667,25.164 L53.8207,25.164 L55.6827,28.874 C55.7107,28.93 55.7807,29 55.9067,29 L57.3767,29 C57.6147,29 57.7127,28.776 57.6147,28.594 L55.6967,25.038 C56.9147,24.548 57.7687,23.498 57.7687,22.21 C57.7687,20.544 56.3967,19.2 54.7167,19.2 L50.7127,19.2 C50.5587,19.2 50.4467,19.326 50.4467,19.466 L50.4467,28.734 Z M52.2807,23.666 L52.2807,20.88 L54.5627,20.88 C55.3047,20.88 55.9487,21.496 55.9487,22.238 C55.9487,23.022 55.3047,23.666 54.5627,23.666 L52.2807,23.666 Z M61.1709,28.734 C61.1709,28.874 61.2829,29 61.4369,29 L67.1349,29 C67.2889,29 67.4009,28.874 67.4009,28.734 L67.4009,27.586 C67.4009,27.446 67.2889,27.32 67.1349,27.32 L62.9909,27.32 L62.9909,24.87 L66.4489,24.87 C66.5889,24.87 66.7149,24.758 66.7149,24.604 L66.7149,23.442 C66.7149,23.302 66.5889,23.176 66.4489,23.176 L62.9909,23.176 L62.9909,20.88 L67.1349,20.88 C67.2889,20.88 67.4009,20.754 67.4009,20.614 L67.4009,19.466 C67.4009,19.326 67.2889,19.2 67.1349,19.2 L61.4369,19.2 C61.2829,19.2 61.1709,19.326 61.1709,19.466 L61.1709,28.734 Z M72.1173,28.734 C72.1173,28.874 72.2433,29 72.3833,29 L73.6853,29 C73.8253,29 73.9513,28.874 73.9513,28.734 L73.9513,20.88 L76.0933,20.88 C76.2473,20.88 76.3593,20.754 76.3593,20.614 L76.3593,19.466 C76.3593,19.326 76.2473,19.2 76.0933,19.2 L69.9753,19.2 C69.8213,19.2 69.7093,19.326 69.7093,19.466 L69.7093,20.614 C69.7093,20.754 69.8213,20.88 69.9753,20.88 L72.1173,20.88 L72.1173,28.734 Z M79.215,28.734 C79.215,28.874 79.327,29 79.481,29 L80.769,29 C80.909,29 81.035,28.874 81.035,28.734 L81.035,25.164 L82.589,25.164 L84.451,28.874 C84.479,28.93 84.549,29 84.675,29 L86.145,29 C86.383,29 86.481,28.776 86.383,28.594 L84.465,25.038 C85.683,24.548 86.537,23.498 86.537,22.21 C86.537,20.544 85.165,19.2 83.485,19.2 L79.481,19.2 C79.327,19.2 79.215,19.326 79.215,19.466 L79.215,28.734 Z M81.049,23.666 L81.049,20.88 L83.331,20.88 C84.073,20.88 84.717,21.496 84.717,22.238 C84.717,23.022 84.073,23.666 83.331,23.666 L81.049,23.666 Z M91.8152,28.734 C91.8152,28.874 91.9272,29 92.0812,29 L93.3692,29 C93.5092,29 93.6352,28.874 93.6352,28.734 L93.6352,24.268 L96.8692,19.606 C96.9812,19.424 96.8692,19.2 96.6452,19.2 L95.2032,19.2 C95.0912,19.2 95.0212,19.27 94.9792,19.326 L92.7392,22.546 L90.4992,19.326 C90.4572,19.27 90.3872,19.2 90.2752,19.2 L88.8472,19.2 C88.6232,19.2 88.5112,19.424 88.6232,19.606 L91.8152,24.282 L91.8152,28.734 Z" id="Shape" fill="#A0A0A0" fill-rule="nonzero"></path>
            <rect id="Rectangle" stroke="#A0A0A0" stroke-width="2" stroke-linecap="round" stroke-linejoin="round" x="0" y="0" width="120" height="46" rx="7"></rect>
        </g>
    </g>
</svg>