<?xml version="1.0" encoding="UTF-8"?>
<!DOCTYPE svg PUBLIC "-//W3C//DTD SVG 1.1//EN" "http://www.w3.org/Graphics/SVG/1.1/DTD/svg11.dtd">
<svg version="1.1" xmlns="http://www.w3.org/2000/svg" xmlns:xlink="http://www.w3.org/1999/xlink" x="0" y="0" width="1024" height="1024" viewBox="0, 0, 1024, 1024">
  <g id="Background">
    <rect x="0" y="0" width="1024" height="1024" fill="#FFFFFF"/>
  </g>
  <g id="Background"/>
  <g id="Logo">
    <path d="M241.891,308.249 L514.825,630.155 C516.144,629.319 517.276,628.219 518.151,626.926 C530.881,612.154 543.564,597.381 556.151,582.513 L717.65,392.512 L785.48,312.427 C786.621,311.099 787.856,309.816 788.996,308.533 C790.801,308.961 791.276,310.386 792.036,311.431 C799.873,322.498 807.058,334.013 813.554,345.916 C836.756,388.172 850.515,434.959 853.881,483.048 C858.838,547.939 844.985,612.883 813.981,670.103 C779.03,734.482 724.217,785.847 657.706,816.546 C656.281,815.786 655.901,814.219 655.236,812.936 Q637.519,778.831 619.896,744.678 C619.326,743.634 618.899,742.494 618.376,741.353 C619.495,740.261 620.865,739.462 622.366,739.026 C640.57,730.693 657.686,720.165 673.334,707.676 C719.245,671.616 751.267,620.781 763.964,563.798 C766.812,551.301 768.639,538.593 769.426,525.798 C770.305,513.353 770.305,500.862 769.426,488.416 L769.092,486.04 C768.47,486.34 767.881,486.707 767.336,487.133 C766.149,488.464 765.009,489.841 763.869,491.171 Q680.221,589.544 596.716,687.916 L518.53,780.73 C517.724,781.681 517.201,782.869 515.634,783.153 C506.609,772.086 497.394,761.256 487.894,750.331 L459.677,717.08 Q445.666,700.694 431.701,684.211 L403.2,650.96 L375.222,618.09 L347.007,584.84 L319.03,551.97 L290.767,518.72 C281.601,507.796 272.101,496.776 262.601,485.471 C262.245,486.053 261.958,486.675 261.746,487.323 C260.828,499.352 260.717,511.428 261.414,523.471 C262.226,537.42 264.212,551.276 267.351,564.891 C285.18,641.675 337.526,705.894 409.139,738.836 C410.231,739.311 411.276,739.881 412.369,740.403 C412.213,742.387 411.524,744.291 410.374,745.913 Q397.834,770.234 385.199,794.458 L375.365,813.457 C374.891,814.409 374.274,815.311 373.751,816.166 C174.364,715.795 119.508,492.84 241.891,308.249 L241.89,308.248 L241.891,308.248 L241.89,308.247 L241.891,308.248 L241.891,308.249 z" fill="#000000"/>
    <path d="M529.696,169.602 C582.702,171.358 632.113,187.653 678.939,211.491 L678.938,211.68 C698.461,222.416 729.431,244.266 736.224,252.056 C733.944,255.951 686.444,314.329 683.024,317.416 C642.447,281.451 591.326,259.573 537.294,255.048 C500.94,251.495 464.252,256.087 429.896,268.491 C430.25,269.305 430.68,270.085 431.179,270.818 C433.981,274.381 436.784,277.944 439.681,281.363 C449.941,293.666 460.439,305.731 470.889,318.128 C473.644,321.169 475.924,324.304 478.394,327.391 C479.248,328.686 480.884,329.218 482.336,328.673 C486.849,327.629 491.219,326.631 495.969,325.871 C506.393,324.146 517.003,323.843 527.509,324.968 C541.035,326.216 554.269,329.648 566.696,335.133 C571.304,337.271 575.484,339.694 580.234,342.021 C581.041,342.449 581.754,343.114 582.704,343.731 C582.486,344.521 582.183,345.286 581.801,346.011 C580.139,348.149 578.571,350.619 577.051,352.898 L545.511,400.397 L543.421,403.77 C546.794,407.904 550.404,411.846 553.824,415.883 L564.178,428.137 C567.551,432.129 570.876,436.119 574.249,440.061 L584.508,452.03 C584.535,452.268 584.535,452.507 584.509,452.743 C584.539,452.853 584.539,452.967 584.509,453.076 Q566.886,474.166 549.074,495.208 C540.191,505.659 531.214,516.014 522.284,526.416 C522.091,526.612 521.866,526.773 521.619,526.891 L521.001,526.89 L292.526,256.14 C292.064,255.509 291.651,254.842 291.291,254.146 C295.899,248.351 321.121,229.589 338.364,219.043 C383.106,192 433.446,175.147 485.602,170.58 C500.248,169.298 514.998,169.929 529.696,169.603 L529.696,169.602 z" fill="#000000"/>
    <path d="M1385.257,-388.094 L1385.255,-388.094 L1385.255,-388.094 C1388.748,-388.094 1393.703,-391.632 1396.324,-395.999 C1398.944,-400.365 1398.237,-403.905 1394.745,-403.906 L1394.743,-403.906 C1394.743,-403.906 1394.743,-403.906 1394.743,-403.906 C1391.25,-403.905 1386.294,-400.365 1383.675,-395.999 C1381.056,-391.633 1381.764,-388.094 1385.257,-388.094 L1385.257,-388.094" fill="#000000"/>
  </g>
</svg>
